<?xml version="1.0" encoding="UTF-8"?>
<svg width="141px" height="29px" viewBox="0 0 141 29" version="1.1" xmlns="http://www.w3.org/2000/svg" xmlns:xlink="http://www.w3.org/1999/xlink">
    <title>Logo</title>
    <g id="scaffcert-main-panel" stroke="none" stroke-width="1" fill="none" fill-rule="evenodd">
        <g id="Return-Forms" transform="translate(-26, -29)">
            <g id="Logo" transform="translate(26, 29)">
                <text id="Scaff-Cert" font-family="Helvetica" font-size="24" font-weight="normal" letter-spacing="-0.382417714" fill="#FFFFFF">
                    <tspan x="37" y="23">Scaff-Cert</tspan>
                </text>
                <g id="logo-2" fill-rule="nonzero">
                    <path d="M10.6923077,15.3846154 L8.76923077,12.6923077 C9.38461538,13.6153846 10,14.4615385 10.6923077,15.3846154 Z" id="Path" fill="#E22227"></path>
                    <path d="M27.8461538,20.4615385 C27.1538462,21 26.4615385,21.4615385 25.7692308,22 C26.4615385,23.0769231 27.0769231,24.2307692 27.6923077,25.3846154 C25.6153846,25.3846154 23.4615385,25.3846154 21.3076923,25.3846154 C20.8461538,24.7692308 20.3076923,24.2307692 20,23.5384615 C21,21.5384615 22.2307692,19.6923077 23.3076923,17.6923077 C23.7692308,18.5384615 24.2307692,19.3846154 24.7692308,20.2307692 C25.4615385,19.6923077 26.1538462,19.1538462 26.8461538,18.6153846 C25.6923077,16.6153846 24.5384615,14.5384615 23.3076923,12.5384615 C21.2307692,16.3076923 19,19.9230769 16.9230769,23.6923077 C17.7692308,25.0769231 18.8461538,26.3846154 19.7692308,27.6923077 L19.9230769,27.6923077 L30,27.6923077 C30.3846154,27.6923077 30.7692308,27.6923077 31.0769231,27.6923077 L32,27.6923077 C30.6923077,25.2307692 29.2307692,22.8461538 27.8461538,20.4615385 Z" id="Path" fill="#FFFFFF"></path>
                    <path d="M17.9230769,17.6923077 C19.3076923,15.3076923 20.6153846,12.9230769 22.0769231,10.5384615 C21.6153846,9.46153846 17.4615385,2.38461538 16,0 C13.6153846,4.23076923 11.1538462,8.46153846 8.76923077,12.6923077 L13.7692308,19.6923077 L10.6923077,25.0769231 C8.69230769,25.1538462 6.61538462,25.0769231 4.53846154,25.0769231 L9.38461538,16.6923077 L7.76923077,14.3846154 C5.15384615,18.7692308 2.69230769,23.3076923 0,27.6923077 C4.07692308,27.6923077 8.15384615,27.6923077 12.1538462,27.6923077 C13.3846154,25.3846154 16.9230769,19.4615385 16.9230769,19.4615385 L11.8461538,12.6153846 C13.1538462,10.0769231 14.6923077,7.69230769 16,5.15384615 L19.0769231,10.5384615 L16.2307692,15.3846154 C16.7692308,16.1538462 17.3846154,16.9230769 17.9230769,17.6923077 Z" id="Path" fill="#FFFFFF"></path>
                </g>
            </g>
        </g>
    </g>
</svg>