<?xml version="1.0" encoding="UTF-8"?>
<svg width="15.4729156px" height="15.9749994px" viewBox="0 0 15.4729156 15.9749994" version="1.1" xmlns="http://www.w3.org/2000/svg" xmlns:xlink="http://www.w3.org/1999/xlink">
    <title>Client icon</title>
    <g id="scaffcert-main-panel" stroke="none" stroke-width="1" fill="none" fill-rule="evenodd">
        <g id="Delivery-Forms-action" transform="translate(-33.1997, -179.9375)">
            <g id="Group" transform="translate(32, 177)">
                <g id="Client-icon" transform="translate(0, 2)">
                    <path d="M6.81041014,8.71499991 C6.77291014,8.70749991 6.72040991,8.70749991 6.67540991,8.71499991 C4.50040984,8.64749991 2.85791016,6.9375 2.85791016,4.83000004 C2.85791016,2.68500012 4.60541028,0.9375 6.7504102,0.9375 C8.89541012,0.9375 10.6429095,2.68500012 10.6429095,4.83000004 C10.6354095,6.9375 8.98540986,8.64749991 6.89290988,8.71499991 C6.88540988,8.71499991 6.87791008,8.71499991 6.87041008,8.71499991 C6.84791009,8.71499991 6.83291014,8.71499991 6.81041014,8.71499991 Z M3.98291016,4.83000004 C3.98291016,6.33000004 5.15290993,7.53749991 6.64540994,7.58999991 C6.69040994,7.58249991 6.78791043,7.58249991 6.88541043,7.58999991 C8.35541046,7.52249991 9.51040953,6.31500006 9.51790953,4.83000004 C9.51790953,3.30750006 8.27291018,2.0625 6.7504102,2.0625 C5.22791022,2.0625 3.98291016,3.30750006 3.98291016,4.83000004 Z" id="Vector" fill="#FFFFFF"></path>
                    <path d="M12.3377657,8.80499983 C12.0302657,8.83499983 11.7152651,8.61749994 11.6852651,8.30999994 C11.6552651,8.00249995 11.8427657,7.725 12.1502657,7.6875 C12.2402657,7.68 12.3377647,7.67999983 12.4202647,7.67999983 C13.5152648,7.61999983 14.3702651,6.71999985 14.3702651,5.61749983 C14.3702651,4.47749984 13.447765,3.55499983 12.307765,3.55499983 C12.000265,3.56249983 11.745265,3.3075 11.745265,3 C11.745265,2.6925 12.000265,2.4375 12.307765,2.4375 C14.062765,2.4375 15.4952649,3.87000006 15.4952649,5.625 C15.4952649,7.34999996 14.1452649,8.745 12.4277649,8.8125 C12.4202649,8.8125 12.4127658,8.8125 12.4052658,8.8125 C12.3827658,8.8125 12.3602657,8.8125 12.3377657,8.80499983 Z" id="Vector" fill="#FFFFFF" fill-rule="nonzero"></path>
                    <path d="M2.8122071,15.7874994 C1.76970711,15.0974994 1.19970703,14.1524996 1.19970703,13.1249996 C1.19970703,12.0974996 1.76970711,11.1450001 2.8122071,10.4475001 C5.0622071,8.95500004 8.70720685,8.95500004 10.9422069,10.4475001 C11.9772069,11.1375001 12.5547066,12.0824993 12.5547066,13.1099993 C12.5547066,14.1374993 11.9847068,15.0899994 10.9422069,15.7874994 C9.81720686,16.5374994 8.34720719,16.9124994 6.87720716,16.9124994 C5.40720713,16.9124994 3.92970711,16.5374994 2.8122071,15.7874994 Z M2.32470694,13.1324998 C2.32470694,13.7699998 2.72220705,14.3849992 3.43470705,14.8574992 C5.30220705,16.1099992 8.45220691,16.1099992 10.3197069,14.8574992 C11.0397069,14.3774993 11.4297066,13.7624995 11.4297066,13.1174995 C11.4297066,12.4799995 11.0322069,11.8649995 10.3197069,11.3924995 C8.45220691,10.1474995 5.30220705,10.1474995 3.43470705,11.3924995 C2.71470706,11.8724995 2.32470694,12.4874998 2.32470694,13.1324998 Z" id="Vector" fill="#FFFFFF"></path>
                    <path d="M18,0 L18,18 L0,18 L0,0 L18,0 Z" id="Vector" opacity="0"></path>
                    <path d="M13.2076235,15.1125137 C13.1476235,14.8050137 13.3426234,14.5125141 13.6426234,14.4450141 C14.1151234,14.3475141 14.5501233,14.1600145 14.8876233,13.8975145 C15.3151233,13.5750145 15.5476227,13.1700139 15.5476227,12.742514 C15.5476227,12.315014 15.3151235,11.9100141 14.8951235,11.5950142 C14.5651235,11.3400142 14.1526225,11.1600137 13.6651225,11.0475137 C13.3651225,10.9800137 13.1701227,10.680014 13.2376227,10.372514 C13.3051227,10.072514 13.6051225,9.87751425 13.9126225,9.94501425 C14.5576225,10.0875142 15.1201234,10.3425142 15.5776234,10.6950142 C16.2751234,11.2200142 16.6726227,11.962514 16.6726227,12.742514 C16.6726227,13.5225139 16.2676232,14.2650136 15.5701232,14.7975136 C15.1051232,15.1575136 14.520123,15.4200136 13.875123,15.5475136 C13.830123,15.5625139 13.7926231,15.5625139 13.7551231,15.5625139 C13.4926231,15.5625139 13.2601235,15.3825137 13.2076235,15.1125137 Z" id="Vector" fill="#FFFFFF" fill-rule="nonzero"></path>
                </g>
            </g>
        </g>
    </g>
</svg>