<?xml version="1.0" encoding="UTF-8"?>
<svg width="18.0003407px" height="18.000225px" viewBox="0 0 18.0003407 18.000225" version="1.1" xmlns="http://www.w3.org/2000/svg" xmlns:xlink="http://www.w3.org/1999/xlink">
    <title>Home</title>
    <g id="scaffcert-main-panel" stroke="none" stroke-width="1" fill="none" fill-rule="evenodd">
        <g id="Delivery-Forms-action" transform="translate(-31.9998, -114.9998)" fill="#FFFFFF">
            <g id="Item-1" transform="translate(31.9998, 113)">
                <g id="bx-home" transform="translate(0, 1.9998)">
                    <path d="M0.900170332,9.900225 L1.80017033,9.900225 L1.80017033,11.700225 L1.80017033,16.200225 C1.80017033,17.192925 2.60747033,18.000225 3.60017033,18.000225 L6.30017033,18.000225 L11.7001703,18.000225 L14.4001703,18.000225 C15.3928703,18.000225 16.2001703,17.192925 16.2001703,16.200225 L16.2001703,11.700225 L16.2001703,9.900225 L17.1001703,9.900225 C17.4637703,9.900225 17.7931703,9.680625 17.9317703,9.344925 C18.0712703,9.008325 17.9938703,8.621325 17.7364703,8.363925 L9.63647033,0.263925 C9.28457033,-0.087975 8.71577033,-0.087975 8.36387033,0.263925 L0.263870332,8.363925 C0.00647033182,8.621325 -0.0709296682,9.008325 0.0685703318,9.344925 C0.207170332,9.680625 0.536570332,9.900225 0.900170332,9.900225 Z M7.20017033,16.200225 L7.20017033,11.700225 L10.8001703,11.700225 L10.8001703,16.200225 L7.20017033,16.200225 Z M9.00017033,2.172825 L14.4001703,7.572825 L14.4001703,11.700225 L14.4001703,11.700225 L14.4010703,16.200225 L12.6001703,16.200225 L12.6001703,11.700225 C12.6001703,10.707525 11.7928703,9.900225 10.8001703,9.900225 L7.20017033,9.900225 C6.20747033,9.900225 5.40017033,10.707525 5.40017033,11.700225 L5.40017033,16.200225 L3.60017033,16.200225 L3.60017033,11.700225 L3.60017033,9.000225 L3.60017033,7.572825 L9.00017033,2.172825 Z" id="Shape"></path>
                </g>
            </g>
        </g>
    </g>
</svg>