<?xml version="1.0" encoding="UTF-8"?>
<svg width="15.9907356px" height="15.9665621px" viewBox="0 0 15.9907356 15.9665621" version="1.1" xmlns="http://www.w3.org/2000/svg" xmlns:xlink="http://www.w3.org/1999/xlink">
    <title>JSA Risk Control</title>
    <g id="scaffcert-main-panel" stroke="none" stroke-width="1" fill="none" fill-rule="evenodd">
        <g id="Delivery-Forms-action" transform="translate(-53.004, -659.0056)">
            <g id="Group-10" transform="translate(52, 656)">
                <g id="JSA-Risk-Control" transform="translate(0, 2)">
                    <path d="M9.94500375,1.83745971 L11.1300037,2.84995964 C11.3550037,3.03745964 11.782504,3.19495976 12.082504,3.19495976 L13.3575032,3.19495976 C14.1525031,3.19495976 14.8050041,3.84745967 14.8050041,4.64245963 L14.8050041,5.91745949 C14.8050041,6.21745949 14.9625049,6.63745929 15.1500049,6.8624593 L16.1625037,8.0474596 C16.6050037,8.57245959 16.6050037,9.41995977 16.1625037,9.92995977 L15.1500049,11.1149597 C14.9625049,11.3399597 14.8050041,11.7599599 14.8050041,12.0599599 L14.8050041,13.3349605 C14.8050041,14.1299604 14.1525031,14.7824593 13.3575032,14.7824593 L12.082504,14.7824593 C11.782504,14.7824593 11.3625039,14.93996 11.1375039,15.12746 L9.95250392,16.1399603 C9.42750393,16.5824603 8.58000375,16.5824603 8.07000375,16.1399603 L6.88500381,15.12746 C6.6600038,14.93996 6.23250362,14.7824593 5.94000363,14.7824593 L4.62750363,14.7824593 C3.83250368,14.7824593 3.1800034,14.1299604 3.1800034,13.3349605 L3.1800034,12.0524597 C3.1800034,11.7599597 3.03000355,11.3324597 2.84250355,11.1149597 L1.83000366,9.9224596 C1.39500368,9.4049596 1.39500368,8.5649596 1.83000366,8.0474596 L2.84250355,6.85495985 C3.03000355,6.62995984 3.1800034,6.20995948 3.1800034,5.91745949 L3.1800034,4.64995944 C3.1800034,3.85495949 3.83250368,3.20245957 4.62750363,3.20245957 L5.92500365,3.20245957 C6.22500365,3.20245957 6.64500345,3.04495963 6.87000346,2.85745963 L8.06250358,1.83745971 C8.58750357,1.39495973 9.43500374,1.39495973 9.94500375,1.83745971 Z" id="Vector" stroke="#FFFFFF" stroke-linecap="round" stroke-linejoin="round" stroke-dasharray="0,0" fill-rule="nonzero"></path>
                    <line x1="9" y1="6.09750366" x2="9" y2="9.7200036" id="Vector" stroke="#FFFFFF" stroke-linecap="round" stroke-linejoin="round" stroke-dasharray="0,0" fill-rule="nonzero"></line>
                    <line x1="8.99588013" y1="12" x2="9.09588013" y2="12" id="Vector" stroke="#FFFFFF" stroke-linecap="round" stroke-linejoin="round" stroke-dasharray="0,0"></line>
                    <path d="M18,0 L18,18 L0,18 L0,0 L18,0 Z" id="Vector" opacity="0"></path>
                </g>
            </g>
        </g>
    </g>
</svg>