<?xml version="1.0" encoding="UTF-8"?>
<svg width="15.9953575px" height="15.1206767px" viewBox="0 0 15.9953575 15.1206767" version="1.1" xmlns="http://www.w3.org/2000/svg" xmlns:xlink="http://www.w3.org/1999/xlink">
    <title>JSA Hazards</title>
    <g id="scaffcert-main-panel" stroke="none" stroke-width="1" fill="none" fill-rule="evenodd">
        <g id="Delivery-Forms-action" transform="translate(-53.0017, -612.4443)">
            <g id="Group-10" transform="translate(52, 609)">
                <g id="JSA-Hazards" transform="translate(0, 2)">
                    <line x1="9" y1="6.75" x2="9" y2="10.5" id="Vector" stroke="#FFFFFF" stroke-linecap="round" stroke-linejoin="round" stroke-dasharray="0,0"></line>
                    <path d="M4.45504117,16.0575213 C1.85254115,16.0575213 0.765041202,14.1975219 2.02504116,11.9250219 L4.36504126,7.71002197 L6.5700413,3.75002199 C7.90504128,1.34252197 10.0950413,1.34252197 11.4300413,3.75002199 L13.6350417,7.71752214 L15.9750409,11.9325221 C17.2350409,14.205022 16.1400411,16.0650215 13.5450411,16.0650215 L9.00004148,16.0650215 L9.00004148,16.0575213 L4.45504117,16.0575213 Z" id="Vector" stroke="#FFFFFF" stroke-linecap="round" stroke-linejoin="round" stroke-dasharray="0,0" fill-rule="nonzero"></path>
                    <line x1="8.99588013" y1="12.75" x2="9.09588013" y2="12.75" id="Vector" stroke="#FFFFFF" stroke-linecap="round" stroke-linejoin="round" stroke-dasharray="0,0"></line>
                    <path d="M18,0 L18,18 L0,18 L0,0 L18,0 Z" id="Vector" opacity="0"></path>
                </g>
            </g>
        </g>
    </g>
</svg>