<?xml version="1.0" encoding="UTF-8"?>
<svg width="17.2878463px" height="16.8398437px" viewBox="0 0 17.2878463 16.8398437" version="1.1" xmlns="http://www.w3.org/2000/svg" xmlns:xlink="http://www.w3.org/1999/xlink">
    <title>Payments</title>
    <g id="scaffcert-main-panel" stroke="none" stroke-width="1" fill="none" fill-rule="evenodd">
        <g id="Delivery-Forms-action" transform="translate(-32.1875, -901.9727)">
            <g id="Group-4" transform="translate(32, 899)">
                <g id="Payments" transform="translate(0, 2)">
                    <path d="M5.72250366,17.0623169 C5.48250367,17.0623169 5.27249863,16.9123242 5.18999863,16.6948242 C5.10749863,16.4698242 5.17499955,16.2223114 5.35499954,16.0723114 C5.53499954,15.9223114 5.69999588,15.7273187 5.81999588,15.5173187 C6.05999587,15.1348187 6.18000412,14.6998242 6.18000412,14.2573242 C6.18000412,12.9148242 5.08500409,11.8198242 3.74250412,11.8198242 C3.18750411,11.8198242 2.66250502,12.0073022 2.22000504,12.3598022 C2.05500504,12.4948023 1.82249862,12.5173224 1.62749863,12.4273224 C1.43249863,12.3373224 1.3125,12.1348279 1.3125,11.9173279 L1.3125,8.63983154 C1.3125,6.77233154 2.82749587,5.25732422 4.69499588,5.25732422 L13.3050041,5.25732422 C15.1725041,5.25732422 16.6875,6.77233154 16.6875,8.63983154 L16.6875,9.71983337 C16.6875,10.0273334 16.4325,10.2823334 16.125,10.2823334 L14.6099968,10.2823334 C14.3474968,10.2823334 14.1075014,10.3798297 13.9350014,10.5598297 L13.9275055,10.567337 C13.7175055,10.769837 13.6200018,11.0473059 13.6425018,11.3323059 C13.6875018,11.8273059 14.1600046,12.2248077 14.7000046,12.2248077 L16.125,12.2248077 C16.4325,12.2248077 16.6875,12.4798077 16.6875,12.7873077 L16.6875,13.6798096 C16.6875,15.5473096 15.1725041,17.0623169 13.3050041,17.0623169 L5.72250366,17.0623169 Z M13.3050041,15.9373169 C14.5500041,15.9373169 15.5625,14.9248095 15.5625,13.6798096 L15.5625,13.3498077 L14.7000046,13.3498077 C13.5675046,13.3498077 12.6075018,12.5098096 12.5175018,11.4298096 C12.4575018,10.8148096 12.6824959,10.2073315 13.1324959,9.76483154 C13.5224959,9.36733156 14.0474968,9.14982605 14.6099968,9.14982605 L15.5625,9.14982605 L15.5625,8.63232422 C15.5625,7.38732424 14.5500041,6.37481689 13.3050041,6.37481689 L4.69499588,6.37481689 C3.44999591,6.37481689 2.4375,7.38732424 2.4375,8.63232422 L2.4375,10.942337 C2.8575,10.777337 3.29999998,10.6873169 3.75,10.6873169 C5.71499991,10.6873169 7.3125,12.284817 7.3125,14.2498169 C7.3125,14.8423169 7.16249451,15.4273169 6.88499451,15.9373169 L13.3050041,15.9373169 Z" id="Vector" fill="#FFFFFF"></path>
                    <path d="M1.3125,9.30750561 L1.3125,5.88004589 C1.3125,4.76254588 2.01750138,3.75000393 3.06000137,3.35250396 L9.0150032,1.10250396 C9.6300032,0.870003954 10.3125,0.952540576 10.845005,1.32754058 C11.3850051,1.70254058 11.7000046,2.31003508 11.7000046,2.96253508 L11.7000046,5.81252575 C11.7000046,6.12002575 11.4450046,6.37502575 11.1375046,6.37502575 C10.8300046,6.37502575 10.5750046,6.12002575 10.5750046,5.81252575 L10.5750046,2.96253508 C10.5750046,2.67753509 10.4400046,2.41502593 10.2000046,2.25002593 C9.96000458,2.08502593 9.67499498,2.04752227 9.40499496,2.15252227 L3.45000458,4.40252209 C2.84250458,4.63502209 2.43000412,5.22754589 2.43000412,5.88004589 L2.43000412,9.30750561 C2.43750412,9.6225056 2.1825,9.87000561 1.875,9.87000561 C1.5675,9.87000561 1.3125,9.6150056 1.3125,9.30750561 Z" id="Vector" fill="#FFFFFF" fill-rule="nonzero"></path>
                    <path d="M12.5178458,11.43013 C12.4578458,10.80763 12.6828399,10.2001446 13.1328399,9.75764465 C13.5153399,9.36764467 14.040345,9.15014648 14.602845,9.15014648 L16.1628463,9.15014648 C16.9053463,9.17264648 17.4753463,9.75761537 17.4753463,10.4776154 L17.4753463,12.0226593 C17.4753463,12.7426593 16.9053454,13.3276282 16.1853454,13.3501282 L14.7003486,13.3501282 C13.5678486,13.3501282 12.6078458,12.51013 12.5178458,11.43013 Z M14.6103408,10.2751465 C14.3478408,10.2751465 14.1078453,10.3726428 13.9353453,10.5526428 C13.7178453,10.7626428 13.6128458,11.0476263 13.6428458,11.3326263 C13.6878458,11.8276264 14.1603486,12.2251282 14.7003486,12.2251282 L16.1703422,12.2251282 C16.2678422,12.2251282 16.3578422,12.1351593 16.3578422,12.0226593 L16.3578422,10.4776154 C16.3578422,10.3651154 16.2678431,10.2826465 16.1478431,10.2751465 L14.6103408,10.2751465 Z" id="Vector" fill="#FFFFFF"></path>
                    <path d="M5.25,9.5625 C4.9425,9.5625 4.6875,9.3075 4.6875,9 C4.6875,8.6925 4.9425,8.4375 5.25,8.4375 L10.5,8.4375 C10.8075,8.4375 11.0625,8.6925 11.0625,9 C11.0625,9.3075 10.8075,9.5625 10.5,9.5625 L5.25,9.5625 Z" id="Vector" fill="#FFFFFF" fill-rule="nonzero"></path>
                    <path d="M0.705001831,16.0800018 C0.36750184,15.5400018 0.1875,14.9025 0.1875,14.25 C0.1875,13.155 0.674999088,12.1424835 1.52249908,11.4674835 C2.15249906,10.9649835 2.94749996,10.6875 3.75,10.6875 C5.71499991,10.6875 7.3125,12.2850001 7.3125,14.25 C7.3125,14.9025 7.13249816,15.5400091 6.79499817,16.0875092 C6.61499817,16.4025091 6.36750045,16.6875 6.08250046,16.9275055 C5.46000047,17.4975055 4.62749997,17.8125 3.75,17.8125 C2.50500003,17.8125 1.33500181,17.1525018 0.705001831,16.0800018 Z M2.22750092,12.352478 C1.65000093,12.809978 1.3125,13.5075 1.3125,14.25 C1.3125,14.6925 1.43250091,15.1274872 1.66500092,15.5024872 C2.1075009,16.2524872 2.88750002,16.6875 3.75,16.6875 C4.34250002,16.6875 4.91250367,16.4700018 5.34750366,16.0800018 C5.54250365,15.9150018 5.70750321,15.7199945 5.8275032,15.5099945 C6.0675032,15.1274945 6.1875,14.6925 6.1875,14.25 C6.1875,12.9075 5.09249997,11.8125 3.75,11.8125 C3.19499999,11.8125 2.6700009,11.999978 2.22750092,12.352478 Z" id="Vector" fill="#FFFFFF"></path>
                    <path d="M2.92417234,15.3900638 L2.18167969,14.6475711 C1.96417969,14.4300712 1.96417969,14.0700271 2.18167969,13.8525271 C2.39917968,13.6350271 2.75917784,13.6350271 2.97667783,13.8525271 L3.33667463,14.2125582 L4.53667921,13.1025271 C4.76167922,12.8925271 5.12167756,12.9075564 5.33167756,13.1325564 C5.54167756,13.3575565 5.5266826,13.7175546 5.30168259,13.9275546 L3.70417875,15.4050327 C3.59167875,15.5025327 3.45667143,15.5550418 3.32167143,15.5550418 C3.17917143,15.5550418 3.03667235,15.5025638 2.92417234,15.3900638 Z" id="Vector" fill="#FFFFFF" fill-rule="nonzero"></path>
                    <path d="M18,0 L18,18 L0,18 L0,0 L18,0 Z" id="Vector" opacity="0"></path>
                </g>
            </g>
        </g>
    </g>
</svg>