<?xml version="1.0" encoding="UTF-8"?>
<svg width="16.125px" height="16.125px" viewBox="0 0 16.125 16.125" version="1.1" xmlns="http://www.w3.org/2000/svg" xmlns:xlink="http://www.w3.org/1999/xlink">
    <title>Subscriptions icon</title>
    <g id="scaffcert-main-panel" stroke="none" stroke-width="1" fill="none" fill-rule="evenodd">
        <g id="Delivery-Forms-action" transform="translate(-32.9375, -399.9375)">
            <g id="Group-2" transform="translate(32, 397)">
                <g id="Subscriptions-icon" transform="translate(0, 2)">
                    <path d="M8.37751007,12.1876717 C7.38001004,12.1876717 6.5625,11.3476717 6.5625,10.3126717 C6.5625,10.0051717 6.8175,9.75017166 7.125,9.75017166 C7.4325,9.75017166 7.6875,10.0051717 7.6875,10.3126717 C7.6875,10.7251717 7.99501008,11.0626717 8.37751007,11.0626717 L9.78749084,11.0626717 C10.0799908,11.0626717 10.3125,10.8001726 10.3125,10.4776726 C10.3125,10.0726726 10.2000073,10.0126685 9.94500732,9.92266846 L7.6875,9.13516617 C7.20750001,8.97016617 6.5625,8.61767489 6.5625,7.51517487 C6.5625,6.57767487 7.30500913,5.80517578 8.21250916,5.80517578 L9.62248993,5.80517578 C10.61999,5.80517578 11.4375,6.64517578 11.4375,7.68017578 C11.4375,7.98767578 11.1825,8.24267578 10.875,8.24267578 C10.5675,8.24267578 10.3125,7.98767578 10.3125,7.68017578 C10.3125,7.26767577 10.0049899,6.93017578 9.62248993,6.93017578 L8.21250916,6.93017578 C7.92000917,6.93017578 7.6875,7.19267486 7.6875,7.51517487 C7.6875,7.92017488 7.79999267,7.98016754 8.05499268,8.07016754 L10.3125,8.85766983 C10.7925,9.02266983 11.4375,9.37517256 11.4375,10.4776726 C11.4375,11.4226726 10.6949909,12.1876717 9.78749084,12.1876717 L8.37751007,12.1876717 Z" id="Vector" fill="#FFFFFF" fill-rule="nonzero"></path>
                    <path d="M8.4375,12.375 L8.4375,5.625 C8.4375,5.3175 8.6925,5.0625 9,5.0625 C9.3075,5.0625 9.5625,5.3175 9.5625,5.625 L9.5625,12.375 C9.5625,12.6825 9.3075,12.9375 9,12.9375 C8.6925,12.9375 8.4375,12.6825 8.4375,12.375 Z" id="Vector" fill="#FFFFFF" fill-rule="nonzero"></path>
                    <path d="M0.9375,9 C0.9375,4.55250013 4.55250013,0.9375 9,0.9375 C9.3075,0.9375 9.5625,1.1925 9.5625,1.5 C9.5625,1.8075 9.3075,2.0625 9,2.0625 C5.17500007,2.0625 2.0625,5.17500007 2.0625,9 C2.0625,12.8249999 5.17500007,15.9375 9,15.9375 C12.8249999,15.9375 15.9375,12.8249999 15.9375,9 C15.9375,8.6925 16.1925,8.4375 16.5,8.4375 C16.8075,8.4375 17.0625,8.6925 17.0625,9 C17.0625,13.4474999 13.4474999,17.0625 9,17.0625 C4.55250013,17.0625 0.9375,13.4474999 0.9375,9 Z" id="Vector" fill="#FFFFFF" fill-rule="nonzero"></path>
                    <path d="M12.75,5.8125 C12.4425,5.8125 12.1875,5.5575 12.1875,5.25 L12.1875,2.25 C12.1875,1.9425 12.4425,1.6875 12.75,1.6875 C13.0575,1.6875 13.3125,1.9425 13.3125,2.25 L13.3125,4.6875 L15.75,4.6875 C16.0575,4.6875 16.3125,4.9425 16.3125,5.25 C16.3125,5.5575 16.0575,5.8125 15.75,5.8125 L12.75,5.8125 Z" id="Vector" fill="#FFFFFF" fill-rule="nonzero"></path>
                    <path d="M12.3520898,5.64745438 C12.1345899,5.42995439 12.1345899,5.06995621 12.3520898,4.85245621 L16.10209,1.10245606 C16.31959,0.884956062 16.6795882,0.884956062 16.8970882,1.10245606 C17.1145882,1.31995605 17.1145882,1.67995421 16.8970882,1.8974542 L13.147088,5.64745438 C13.034588,5.75995439 12.8920889,5.8124553 12.7495889,5.8124553 C12.6070889,5.8124553 12.4645898,5.75995439 12.3520898,5.64745438 Z" id="Vector" fill="#FFFFFF" fill-rule="nonzero"></path>
                    <path d="M18,0 L18,18 L0,18 L0,0 L18,0 Z" id="Vector" opacity="0"></path>
                </g>
            </g>
        </g>
    </g>
</svg>