<?xml version="1.0" encoding="UTF-8"?>
<svg width="16.125px" height="16.125px" viewBox="0 0 16.125 16.125" version="1.1" xmlns="http://www.w3.org/2000/svg" xmlns:xlink="http://www.w3.org/1999/xlink">
    <title>Tutorials</title>
    <g id="scaffcert-main-panel" stroke="none" stroke-width="1" fill="none" fill-rule="evenodd">
        <g id="Delivery-Forms-action" transform="translate(-32.9375, -950.9375)">
            <g id="Group-6" transform="translate(32, 947)">
                <g id="Tutorials" transform="translate(0, 3)">
                    <path d="M6.75,17.0625 C2.67750013,17.0625 0.9375,15.3224999 0.9375,11.25 L0.9375,6.75 C0.9375,2.67750013 2.67750013,0.9375 6.75,0.9375 L11.25,0.9375 C15.3224999,0.9375 17.0625,2.67750013 17.0625,6.75 L17.0625,11.25 C17.0625,15.3224999 15.3224999,17.0625 11.25,17.0625 L6.75,17.0625 Z M2.0625,6.75 L2.0625,11.25 C2.0625,14.7075001 3.2924999,15.9375 6.75,15.9375 L11.25,15.9375 C14.7075001,15.9375 15.9375,14.7075001 15.9375,11.25 L15.9375,6.75 C15.9375,3.2924999 14.7075001,2.0625 11.25,2.0625 L6.75,2.0625 C3.2924999,2.0625 2.0625,3.2924999 2.0625,6.75 Z" id="Vector" fill="#FFFFFF"></path>
                    <path d="M1.88964844,5.89489746 C1.58214844,5.89489746 1.32714844,5.63989746 1.32714844,5.33239746 C1.32714844,5.02489746 1.57464845,4.76989746 1.88964844,4.76989746 L16.1096478,4.76989746 C16.4171477,4.76989746 16.6721478,5.02489746 16.6721478,5.33239746 C16.6721478,5.63989746 16.4246477,5.89489746 16.1096478,5.89489746 L1.88964844,5.89489746 Z" id="Vector" fill="#FFFFFF" fill-rule="nonzero"></path>
                    <path d="M5.82714844,5.2273972 L5.82714844,1.58239737 C5.82714844,1.27489737 6.0821488,1.01989746 6.3896488,1.01989746 C6.69714879,1.01989746 6.9521488,1.27489737 6.9521488,1.58239737 L6.9521488,5.2273972 C6.9521488,5.5348972 6.69714879,5.7898972 6.3896488,5.7898972 C6.0821488,5.7898972 5.82714844,5.5348972 5.82714844,5.2273972 Z" id="Vector" fill="#FFFFFF" fill-rule="nonzero"></path>
                    <path d="M11.0478516,4.88989735 L11.0478516,1.58239737 C11.0478516,1.27489737 11.3028516,1.01989746 11.6103516,1.01989746 C11.9178516,1.01989746 12.1728516,1.27489737 12.1728516,1.58239737 L12.1728516,4.88989735 C12.1728516,5.20489734 11.9253516,5.45239735 11.6103516,5.45239735 C11.3028516,5.45239735 11.0478516,5.19739734 11.0478516,4.88989735 Z" id="Vector" fill="#FFFFFF" fill-rule="nonzero"></path>
                    <path d="M7.55999994,13.3948234 C7.04999994,13.0948234 6.75,12.4948227 6.75,11.7373227 L6.75,9.93732297 C6.75,9.17982298 7.05000012,8.5723228 7.56750011,8.2723228 C8.08500011,7.97232279 8.76000014,8.01732286 9.41250014,8.39982285 L10.9725001,9.29982269 C11.6250001,9.67482269 12.0075002,10.2373228 12.0075002,10.8373228 C12.0075002,11.4373228 11.6249999,11.999823 10.9649999,12.374823 L9.40499997,13.2748235 C9.04499998,13.4848235 8.67000011,13.5898236 8.31750011,13.5898236 C8.0475001,13.5898236 7.79249994,13.5223234 7.55999994,13.3948234 Z M8.13000011,9.24732292 C7.97250012,9.33732291 7.875,9.59232297 7.875,9.93732297 L7.875,11.7373227 C7.875,12.0748227 7.97250012,12.3298227 8.13000011,12.4273227 C8.28750011,12.5173227 8.55750015,12.4723227 8.85000014,12.2998227 L10.4100001,11.3998228 C10.7025001,11.2273228 10.8825002,11.0173228 10.8825002,10.8373228 C10.8825002,10.6573228 10.7100001,10.4473228 10.4100001,10.2748228 L8.85000014,9.37482297 C8.65500015,9.26232297 8.46750028,9.20232332 8.32500029,9.20232332 C8.25,9.20232332 8.18250011,9.21732292 8.13000011,9.24732292 Z" id="Vector" fill="#FFFFFF"></path>
                    <path d="M18,0 L18,18 L0,18 L0,0 L18,0 Z" id="Vector" opacity="0"></path>
                </g>
            </g>
        </g>
    </g>
</svg>